<svg width="38" height="37" viewBox="0 0 38 37" fill="none" xmlns="http://www.w3.org/2000/svg">
<path d="M38 19C38 28.9411 29.4934 37 19 37C8.50659 37 0 28.9411 0 19C0 9.05887 8.50659 1 19 1C29.4934 1 38 9.05887 38 19Z" fill="#2C850D" fill-opacity="0.98"/>
<path fill-rule="evenodd" clip-rule="evenodd" d="M18.5 21.0051C23.3127 21.1601 27.3568 17.7683 27.5417 13.4218C27.3568 9.07524 23.3127 5.68346 18.5 5.83843C13.6873 5.68346 9.64325 9.07524 9.45834 13.4218C9.47986 15.7195 10.6869 17.8767 12.7224 19.2551L12.6875 22.7551L16.5625 20.8301C17.2003 20.9467 17.8493 21.0053 18.5 21.0051Z" stroke="white" stroke-width="1.5" stroke-linecap="round" stroke-linejoin="round"/>
<path d="M23.0209 11.6718L19.7917 14.5885L17.2084 12.2551L13.9792 15.1718" stroke="white" stroke-width="1.5" stroke-linecap="round" stroke-linejoin="round"/>
<path d="M11.1732 25.7785C11.1603 25.7624 11.1617 25.7099 11.1774 25.6208C11.1908 25.5256 11.2017 25.414 11.2099 25.2861C11.222 25.1497 11.2266 25.0023 11.2236 24.8438C11.2244 24.6769 11.2058 24.5138 11.1677 24.3543C11.1358 24.1926 11.0794 24.0399 10.9986 23.8963C10.9178 23.7526 10.7995 23.6297 10.6438 23.5276C10.5557 23.4769 10.4494 23.471 10.325 23.51C10.2044 23.5406 10.0769 23.6086 9.94222 23.7138C9.81143 23.8107 9.68163 23.9384 9.55282 24.0971C9.42787 24.2473 9.32189 24.4114 9.23489 24.5892C9.14564 24.761 9.08035 24.9413 9.03902 25.13C9.0038 25.3165 9.0094 25.4915 9.05582 25.6548C9.09097 25.7875 9.13801 25.9055 9.19693 26.0086C9.26195 26.1096 9.3297 26.199 9.40018 26.2771C9.47065 26.3552 9.54192 26.426 9.614 26.4896C9.68607 26.5533 9.7517 26.6088 9.8109 26.6564C9.89133 26.7238 10.0026 26.7903 10.1448 26.8558C10.287 26.9213 10.4439 26.9986 10.6157 27.0879C10.7852 27.171 10.9615 27.2725 11.1445 27.3923C11.3276 27.5121 11.5032 27.6589 11.6715 27.8327C11.8398 28.0065 11.9896 28.2149 12.121 28.4579C12.2524 28.7008 12.3542 28.986 12.4265 29.3132C12.5262 29.79 12.558 30.205 12.522 30.5584C12.4882 30.9179 12.4165 31.222 12.3071 31.4706C12.2038 31.717 12.0782 31.9125 11.9304 32.0573C11.7849 32.2083 11.6586 32.3173 11.5516 32.3846C11.4667 32.4368 11.3624 32.4926 11.2387 32.5522C11.1233 32.6157 10.9909 32.6611 10.8414 32.6885C10.7003 32.7198 10.5471 32.7278 10.3818 32.7125C10.2188 32.7033 10.0575 32.6518 9.89794 32.5581C9.7133 32.4528 9.55163 32.3251 9.41294 32.175C9.28937 32.0472 9.17511 31.8881 9.07014 31.6978C8.96133 31.5159 8.90104 31.3057 8.88928 31.0671C8.91784 30.9941 8.95171 30.9261 8.99089 30.8631C9.03006 30.8 9.0715 30.7431 9.11518 30.6922C9.16272 30.633 9.21445 30.5758 9.27035 30.5204C9.34072 30.4667 9.41222 30.416 9.48485 30.3683C9.54752 30.3313 9.6155 30.2993 9.68878 30.2722C9.76592 30.2368 9.84259 30.2189 9.91879 30.2185C9.86553 30.3561 9.83749 30.4775 9.83468 30.5827C9.82829 30.6406 9.82576 30.6901 9.82707 30.7312C9.8455 30.8563 9.88708 30.9971 9.95183 31.1536C10.0249 31.314 10.116 31.4573 10.2251 31.5836C10.3426 31.7137 10.4755 31.8104 10.6237 31.8736C10.7743 31.943 10.9423 31.9469 11.1277 31.8853C11.5781 31.7329 11.8282 31.2449 11.878 30.4215C11.9006 30.1633 11.8702 29.9212 11.7868 29.6952C11.7094 29.467 11.6019 29.2603 11.4641 29.0752C11.3325 28.8879 11.1851 28.7237 11.022 28.5827C10.8627 28.4333 10.7105 28.3125 10.5654 28.2203C10.4204 28.1282 10.2505 28.0347 10.0559 27.94C9.86519 27.837 9.66993 27.7217 9.47016 27.5942C9.2704 27.4667 9.07721 27.3194 8.89059 27.1524C8.71008 26.9831 8.5564 26.7831 8.42954 26.5523C8.25438 26.2283 8.16989 25.9056 8.17607 25.5841C8.1861 25.2542 8.24631 24.9474 8.3567 24.6637C8.47319 24.3778 8.61961 24.1259 8.79596 23.9081C8.97842 23.688 9.15144 23.527 9.31502 23.4249C10.2261 22.8664 10.9313 22.7933 11.4307 23.2058C11.6333 23.36 11.7825 23.5478 11.8782 23.7692C11.9738 23.9907 12.0364 24.207 12.0658 24.4182C12.0991 24.6211 12.11 24.801 12.0985 24.9579C12.0909 25.1065 12.0802 25.1902 12.0664 25.2092C12.0433 25.2594 11.9999 25.3205 11.9363 25.3926C11.8727 25.4646 11.7591 25.5517 11.5956 25.6538C11.5512 25.684 11.5046 25.7082 11.4558 25.7262C11.413 25.742 11.3661 25.7559 11.315 25.7678C11.2638 25.7797 11.2166 25.7833 11.1732 25.7785ZM15.8721 28.2698C15.8388 28.3862 15.7993 28.5049 15.7538 28.6258C15.7082 28.7467 15.6531 28.8607 15.5886 28.9679C15.524 29.075 15.4478 29.1691 15.3597 29.2502C15.2739 29.3374 15.173 29.4024 15.057 29.4453C14.77 29.5513 14.5256 29.5756 14.324 29.5182C14.1223 29.4608 13.9525 29.3673 13.8145 29.2379C13.6825 29.1061 13.58 28.9601 13.5069 28.7997C13.4254 28.6355 13.3655 28.5014 13.3272 28.3976C13.2234 28.1167 13.1735 27.8124 13.1774 27.4848C13.1791 27.151 13.2276 26.8312 13.3228 26.5254C13.4181 26.2195 13.5547 25.9505 13.7326 25.7182C13.9144 25.4775 14.1275 25.3121 14.3718 25.2219C14.5245 25.1655 14.6651 25.1517 14.7937 25.1806C14.9201 25.2033 15.0338 25.2481 15.1348 25.3149C15.2358 25.3817 15.3208 25.4613 15.3897 25.5539C15.4646 25.6442 15.5229 25.7268 15.5644 25.8016C15.5496 25.7238 15.5336 25.643 15.5165 25.5591C15.5039 25.4874 15.4891 25.4096 15.472 25.3257C15.4548 25.2418 15.4389 25.1609 15.424 25.0831C15.4494 25.0391 15.4801 25 15.516 24.9659C15.5581 24.9295 15.6014 24.8962 15.6457 24.8659C15.6962 24.8334 15.7477 24.804 15.8005 24.7776C15.8554 24.7573 15.9085 24.7411 15.9596 24.7292C16.0618 24.7053 16.1414 24.7141 16.1983 24.7555C16.2348 25.3806 16.2683 25.8471 16.2988 26.1551C16.3146 26.3296 16.3318 26.4795 16.3502 26.6045C16.3574 26.6991 16.3692 26.8439 16.3858 27.039C16.4084 27.2319 16.4321 27.4557 16.4567 27.7103C16.4813 27.965 16.5097 28.239 16.5417 28.5326C16.5715 28.82 16.6033 29.1032 16.6369 29.3823C16.7217 29.1983 16.8122 29.0018 16.9085 28.7927C17.0109 28.5814 17.111 28.364 17.2089 28.1404C17.3068 27.9169 17.4005 27.6914 17.4901 27.4641C17.5834 27.2283 17.6657 27.0001 17.7369 26.7795C17.7803 26.6525 17.8249 26.5666 17.8708 26.5218C17.9229 26.4749 17.9668 26.4621 18.0025 26.4836C18.0359 26.499 18.0589 26.5426 18.0715 26.6143C18.088 26.6776 18.0822 26.7561 18.0543 26.8497C18.0063 27.0201 17.9524 27.2031 17.8927 27.3986C17.8308 27.5881 17.7639 27.7828 17.6921 27.9828C17.624 28.1745 17.553 28.3673 17.4789 28.5613C17.4047 28.7552 17.3322 28.9347 17.2613 29.0997C17.1842 29.2669 17.0972 29.4448 17.0003 29.6333C16.9056 29.8279 16.8218 30.0427 16.749 30.2778C16.7675 30.4029 16.7844 30.5146 16.7999 30.613C16.8215 30.7091 16.8398 30.7961 16.8546 30.8739C16.903 31.0989 16.9482 31.2869 16.9901 31.438C17.0404 31.593 17.0858 31.7254 17.1264 31.8353C17.1693 31.9514 17.2107 32.0541 17.2506 32.1434C17.2928 32.2389 17.3331 32.3385 17.3714 32.4423C17.4587 32.6599 17.5059 32.816 17.5131 32.9105C17.5263 33.0028 17.4719 33.0715 17.3497 33.1166C17.2887 33.1392 17.1991 33.141 17.0811 33.1221C16.9631 33.1032 16.8402 33.0619 16.7126 32.998C16.5849 32.9341 16.4615 32.8443 16.3424 32.7287C16.2295 32.6107 16.1403 32.4632 16.0749 32.2861C15.9892 32.054 15.9504 31.8081 15.9586 31.5483C15.969 31.2946 16.0111 31.0327 16.0848 30.7626C16.0712 30.5941 16.0538 30.4062 16.0328 30.1988C16.0178 29.9892 16.0006 29.7734 15.9811 29.5516C15.9639 29.3359 15.9456 29.1171 15.9261 28.8953C15.9067 28.6734 15.8887 28.4649 15.8721 28.2698ZM14.2064 28.354C14.2718 28.5311 14.3439 28.6606 14.4227 28.7426C14.5077 28.8222 14.5897 28.8752 14.6688 28.9015C14.7518 28.9195 14.828 28.9191 14.8974 28.9004C14.9669 28.8817 15.0229 28.8644 15.0657 28.8487C15.194 28.8013 15.3 28.7031 15.3838 28.5542C15.4653 28.3992 15.5256 28.2242 15.5647 28.0293C15.6099 27.8322 15.6353 27.6285 15.6409 27.4182C15.6504 27.1996 15.6441 27.0041 15.6221 26.8318C15.6066 26.7334 15.5915 26.6453 15.5766 26.5675C15.5679 26.4875 15.5606 26.4207 15.5547 26.3674C15.4432 26.4224 15.3548 26.4273 15.2895 26.382C15.2242 26.3368 15.1603 26.2389 15.0978 26.0885C15.0753 26.0274 15.0455 25.9655 15.0084 25.9029C14.9692 25.8341 14.9241 25.7779 14.8733 25.7342C14.8202 25.6844 14.7624 25.6502 14.7 25.6316C14.6377 25.613 14.5698 25.6172 14.4965 25.6443C14.3377 25.7029 14.2152 25.8315 14.1288 26.0299C14.0486 26.2261 13.9983 26.4564 13.9779 26.7207C13.9576 26.985 13.9665 27.2628 14.0046 27.554C14.0489 27.8431 14.1161 28.1097 14.2064 28.354ZM19.3485 27.7042C19.1164 27.7899 18.9136 27.8232 18.7399 27.8041C18.5663 27.7849 18.4176 27.7392 18.2937 27.667C18.1737 27.5863 18.0729 27.4917 17.9911 27.3831C17.9132 27.2661 17.8551 27.1557 17.8167 27.0519C17.7491 26.8687 17.6933 26.6707 17.6494 26.4579C17.6033 26.2389 17.57 26.0361 17.5496 25.8493C17.5269 25.6564 17.5083 25.4932 17.4937 25.3598C17.4853 25.2241 17.4815 25.1388 17.4824 25.1037C17.472 24.9063 17.4859 24.7277 17.524 24.5679C17.566 24.3997 17.6574 24.2618 17.7981 24.1543C17.8547 24.1196 17.9143 24.0837 17.9769 24.0466C18.0297 24.0202 18.0835 23.9969 18.1385 23.9766C18.1995 23.954 18.2579 23.9429 18.3135 23.9432C18.3042 24.4255 18.3026 24.8251 18.3086 25.1422C18.3208 25.4569 18.3351 25.7119 18.3517 25.907C18.3711 26.1289 18.3973 26.3031 18.4302 26.4298C18.5012 26.7159 18.6023 26.9145 18.7335 27.0257C18.8648 27.1368 19.0526 27.1473 19.2969 27.057C19.4557 26.9984 19.5869 26.884 19.6907 26.7138C19.7921 26.5376 19.869 26.3322 19.9212 26.0978C19.8668 26.0068 19.8204 25.9094 19.7821 25.8056C19.7099 25.6102 19.6552 25.4152 19.6181 25.2207C19.5848 25.0179 19.5603 24.8291 19.5444 24.6546C19.5323 24.4716 19.5271 24.307 19.5286 24.1607C19.5362 24.0122 19.5448 23.8945 19.5543 23.8077C19.5674 23.6363 19.5957 23.5252 19.6394 23.4743C19.6809 23.4174 19.7615 23.3633 19.8814 23.3121C19.928 23.2879 19.9677 23.2733 20.0005 23.2681C20.0372 23.2546 20.0688 23.2464 20.0955 23.2434C20.1756 23.2347 20.2257 23.2578 20.246 23.3128C20.2821 23.4105 20.3301 23.5593 20.3901 23.7593C20.4501 23.9592 20.4878 24.1743 20.5035 24.4045C20.5239 24.5913 20.5352 24.7536 20.5376 24.8916C20.5438 25.0211 20.5444 25.1354 20.5393 25.2345C20.532 25.3274 20.5201 25.4081 20.5038 25.4766C20.4852 25.539 20.4685 25.5972 20.4538 25.6512C20.5337 25.8299 20.6031 25.9709 20.662 26.074C20.7209 26.1772 20.7738 26.2548 20.8208 26.3069C20.8717 26.3506 20.9199 26.3779 20.9656 26.3887C21.0151 26.3913 21.0643 26.3835 21.1131 26.3655C21.1986 26.3339 21.2848 26.257 21.3715 26.1348C21.4559 26.0064 21.5367 25.8586 21.6137 25.6913C21.6946 25.5157 21.7691 25.3321 21.8371 25.1404C21.9089 24.9403 21.972 24.754 22.0262 24.5813C22.0804 24.4086 22.1261 24.2598 22.1633 24.135C22.1982 24.0042 22.2204 23.9231 22.2297 23.8919C22.2521 23.8212 22.2794 23.7729 22.3115 23.7472C22.3498 23.7192 22.3856 23.7129 22.4191 23.7283C22.4503 23.7376 22.4749 23.7667 22.4929 23.8155C22.5148 23.856 22.5207 23.9094 22.5104 23.9756C22.474 24.2528 22.4126 24.5565 22.3264 24.8868C22.244 25.2087 22.1396 25.518 22.0131 25.8145C21.8928 26.1088 21.7559 26.3676 21.6024 26.5908C21.4488 26.8141 21.2805 26.9595 21.0973 27.0272C20.9324 27.0881 20.7808 27.0816 20.6424 27.0078C20.508 26.9256 20.3677 26.79 20.2216 26.601C20.1623 26.8728 20.0606 27.1047 19.9163 27.2967C19.7699 27.4827 19.5806 27.6185 19.3485 27.7042ZM26.582 22.7947C26.5416 22.9484 26.488 23.1417 26.4213 23.3746C26.3524 23.6013 26.2784 23.8333 26.1995 24.0707C26.1245 24.2997 26.0449 24.5164 25.9608 24.721C25.8806 24.9172 25.8059 25.0627 25.7369 25.1576C25.6893 25.2168 25.6304 25.2733 25.56 25.327C25.4896 25.3808 25.4128 25.4265 25.3296 25.4642C25.2524 25.4996 25.1739 25.5217 25.0938 25.5305C25.016 25.5453 24.9429 25.5446 24.8744 25.5282C24.8036 25.5058 24.7352 25.4616 24.6693 25.3957C24.6139 25.3398 24.5507 25.2626 24.4796 25.1639C24.4145 25.063 24.3546 24.929 24.2998 24.7618C24.2435 25.0602 24.1516 25.3093 24.0241 25.5091C23.8943 25.7028 23.7613 25.8594 23.6251 25.9792C23.4667 26.114 23.2981 26.2214 23.1194 26.3012C23.0339 26.3328 22.931 26.3361 22.8108 26.3111C22.6927 26.2922 22.5776 26.2341 22.4653 26.1368C22.3508 26.0334 22.2482 25.8873 22.1577 25.6986C22.065 25.5039 22.0015 25.2567 21.9672 24.957C21.9151 24.5529 21.9243 24.1643 21.9947 23.7913C22.0713 23.416 22.18 23.0809 22.3209 22.786C22.4596 22.4849 22.6155 22.2399 22.7887 22.0511C22.9618 21.8622 23.1209 21.7479 23.2659 21.7083C23.442 21.6779 23.5944 21.6772 23.7231 21.706C23.8311 21.7355 23.9199 21.8068 23.9895 21.9199C24.0628 22.0247 24.0715 22.1985 24.0154 22.4413C24.0942 22.3914 24.1599 22.3532 24.2126 22.3268C24.2714 22.2981 24.3161 22.2782 24.3466 22.2669C24.3833 22.2534 24.4088 22.2474 24.4233 22.249C24.4339 22.2589 24.4471 22.2853 24.4629 22.3281C24.4764 22.3647 24.4932 22.4383 24.5132 22.5489C24.5332 22.6595 24.5576 22.8101 24.5864 23.0008C24.6152 23.1914 24.6509 23.4385 24.6936 23.742C24.7016 23.8014 24.7086 23.8578 24.7144 23.9112C24.7241 23.9562 24.7319 24.0054 24.7377 24.0588C24.7474 24.1038 24.7574 24.1591 24.7677 24.2247C24.7781 24.2902 24.791 24.3722 24.8065 24.4706C24.8207 24.5278 24.8402 24.59 24.865 24.6572C24.8937 24.716 24.9273 24.7695 24.9659 24.8177C25.0045 24.8659 25.0489 24.9016 25.0991 24.9247C25.1531 24.9394 25.2168 24.9333 25.2901 24.9062C25.3512 24.8837 25.417 24.8177 25.4877 24.7083C25.5561 24.5928 25.6238 24.4568 25.6909 24.3002C25.7557 24.1374 25.8202 23.9644 25.8844 23.7811C25.9524 23.5894 26.0135 23.4072 26.0677 23.2345C26.1219 23.0618 26.1695 22.9089 26.2106 22.7757C26.2577 22.6403 26.2906 22.5414 26.3092 22.479C26.3378 22.406 26.3754 22.3574 26.422 22.3333C26.4663 22.303 26.5075 22.3017 26.5454 22.3293C26.5834 22.357 26.6067 22.4108 26.6155 22.4909C26.6303 22.5686 26.6192 22.6699 26.582 22.7947ZM24.0467 24.1891C24.0321 24.0556 24.0157 23.8986 23.9976 23.7179C23.9795 23.5372 23.9575 23.3649 23.9316 23.2009C23.9058 23.037 23.8809 22.9039 23.857 22.8017C23.837 22.6911 23.8159 22.6433 23.7937 22.6585C23.7655 22.6758 23.7352 22.6974 23.7031 22.7232C23.6771 22.7466 23.6408 22.7705 23.5942 22.7946C23.5476 22.8188 23.5021 22.846 23.4577 22.8762C23.4705 22.7605 23.4687 22.6709 23.4522 22.6076C23.4396 22.5359 23.4235 22.4829 23.4039 22.4485C23.382 22.408 23.3574 22.3789 23.33 22.3612C23.2425 22.3311 23.1404 22.4209 23.0235 22.6306C22.9105 22.832 22.8151 23.1656 22.7373 23.6316C22.7043 23.8242 22.6942 24.0223 22.7069 24.2258C22.7173 24.4232 22.7397 24.6058 22.7739 24.7736C22.8142 24.9392 22.863 25.0808 22.9203 25.1984C22.9754 25.3099 23.028 25.3772 23.0782 25.4003C23.1702 25.4427 23.2589 25.4481 23.3444 25.4165C23.4277 25.3789 23.5042 25.3229 23.5739 25.2485C23.6474 25.1658 23.7135 25.0721 23.7719 24.9672C23.8364 24.8601 23.8876 24.7544 23.9255 24.6502C23.9695 24.5438 24.0004 24.449 24.0184 24.3661C24.0424 24.2809 24.0518 24.2218 24.0467 24.1891ZM28.9084 22.0188C28.9478 22.2194 28.9838 22.4109 29.0164 22.5932C29.0551 22.7732 29.0906 22.9162 29.1228 23.0223C29.1731 23.1773 29.2412 23.277 29.3271 23.3217C29.413 23.3663 29.4925 23.3751 29.5658 23.348C29.6513 23.3164 29.7394 23.2353 29.8299 23.1047C29.9266 22.9719 30.0215 22.8154 30.1146 22.6352C30.2077 22.4551 30.2963 22.2628 30.3804 22.0582C30.4645 21.8537 30.5397 21.6628 30.6061 21.4856C30.6764 21.3 30.7321 21.1406 30.7731 21.0075C30.8203 20.8721 30.8535 20.7835 30.8727 20.7417C30.8959 20.6915 30.9246 20.6566 30.959 20.6369C30.9995 20.615 31.0353 20.6088 31.0665 20.6181C31.0977 20.6274 31.1223 20.6564 31.1404 20.7053C31.1584 20.7541 31.1566 20.8242 31.1348 20.9156C31.1043 21.0587 31.0604 21.231 31.003 21.4327C30.9434 21.6282 30.8738 21.8344 30.7942 22.0511C30.7146 22.2679 30.6248 22.485 30.5246 22.7024C30.4306 22.9176 30.3267 23.1156 30.213 23.2964C30.1055 23.4749 29.9919 23.6279 29.8724 23.7553C29.7613 23.8866 29.6477 23.9736 29.5316 24.0165C29.4461 24.0481 29.3547 24.0541 29.2572 24.0345C29.1659 24.0128 29.075 23.9734 28.9846 23.9166C28.8942 23.8598 28.8127 23.7892 28.7399 23.7051C28.6733 23.6186 28.625 23.5254 28.595 23.4254C28.5854 23.3804 28.5675 23.3038 28.5413 23.1954C28.3908 23.5772 28.2158 23.9021 28.0164 24.1701C27.8208 24.4297 27.6039 24.6035 27.3657 24.6914C27.2802 24.723 27.1807 24.7355 27.0672 24.7288C26.9537 24.7221 26.8392 24.6846 26.7237 24.6162C26.6143 24.5456 26.5059 24.4399 26.3984 24.2991C26.2909 24.1584 26.2015 23.9728 26.1303 23.7423C26.0178 23.3813 25.964 23.0195 25.9689 22.6568C25.9737 22.2941 26.0249 21.9629 26.1224 21.6631C26.2238 21.355 26.3657 21.091 26.5482 20.8709C26.7345 20.6425 26.9467 20.4843 27.1849 20.3963C27.2887 20.358 27.3935 20.3505 27.4993 20.3739C27.6029 20.3912 27.701 20.4313 27.7936 20.4942C27.884 20.5511 27.9656 20.6216 28.0383 20.7058C28.1171 20.7877 28.1815 20.868 28.2314 20.9468C28.2088 20.7539 28.1842 20.5651 28.1577 20.3806C28.1312 20.1961 28.108 20.0207 28.0883 19.8545C28.0659 19.606 28.0398 19.338 28.01 19.0506C27.9876 18.802 27.962 18.5165 27.9332 18.1941C27.9043 17.8716 27.8789 17.5305 27.8571 17.1707C27.9002 17.0993 27.9446 17.0412 27.9906 16.9965C28.0365 16.9518 28.0817 16.9143 28.126 16.884C28.1742 16.8454 28.2227 16.8171 28.2716 16.799C28.3327 16.7765 28.391 16.7653 28.4466 16.7656C28.5 16.7598 28.5544 16.7848 28.6097 16.8407C28.6689 16.8883 28.7283 16.9739 28.7879 17.0976C28.8475 17.2214 28.9117 17.3954 28.9807 17.6198C29.0677 17.8931 29.1271 18.2042 29.1589 18.5534C29.1968 18.9003 29.2117 19.2696 29.2037 19.6612C29.1934 20.0467 29.1628 20.4432 29.112 20.8506C29.065 21.2496 28.9972 21.6391 28.9084 22.0188ZM28.4119 22.3375C28.3935 22.2125 28.372 22.0885 28.3475 21.9657C28.329 21.8407 28.3125 21.7114 28.298 21.578C28.288 21.5886 28.2781 21.5993 28.2681 21.6099C28.2642 21.6182 28.2573 21.6277 28.2474 21.6383C28.1915 21.6937 28.1457 21.7106 28.11 21.6891C28.072 21.6615 28.0395 21.611 28.0124 21.5377C27.9989 21.5011 27.9722 21.4381 27.9322 21.3487C27.89 21.2533 27.8356 21.1623 27.769 21.0759C27.7062 20.9811 27.6338 20.9072 27.5518 20.8542C27.4675 20.7951 27.3765 20.7836 27.2788 20.8197C27.1383 20.8716 27.0219 20.9978 26.9294 21.1986C26.8347 21.3931 26.7616 21.618 26.71 21.873C26.6562 22.1219 26.6294 22.3781 26.6296 22.6418C26.6298 22.9054 26.6576 23.1311 26.7131 23.3189C26.8091 23.6165 26.9236 23.8137 27.0564 23.9104C27.1893 24.007 27.329 24.0283 27.4756 23.9742C27.5855 23.9336 27.6888 23.8469 27.7855 23.714C27.8883 23.5789 27.9782 23.4277 28.0552 23.2604C28.1384 23.0909 28.2082 22.9229 28.2646 22.7563C28.3272 22.5874 28.3763 22.4479 28.4119 22.3375Z" fill="white"/>
</svg>
