<svg width="38" height="38" viewBox="0 0 38 38" fill="none" xmlns="http://www.w3.org/2000/svg">
<path d="M38 19.0713C38 29.5252 29.4934 37.9998 19 37.9998C8.50659 37.9998 0 29.5252 0 19.0713C0 8.61735 8.50659 0.142776 19 0.142776C29.4934 0.142776 38 8.61735 38 19.0713Z" fill="#2C850D" fill-opacity="0.98"/>
<path fill-rule="evenodd" clip-rule="evenodd" d="M18.5485 20.8933C23.3615 21.0348 27.3977 17.6571 27.5726 13.3414C27.3777 9.02679 23.3258 5.66991 18.5135 5.83614C13.7004 5.69467 9.66419 9.07237 9.48933 13.388C9.51615 15.6691 10.7282 17.8076 12.7668 19.1708L12.74 22.6456L16.6106 20.7245C17.2486 20.8386 17.8978 20.8952 18.5485 20.8933Z" stroke="white" stroke-width="1.5" stroke-linecap="round" stroke-linejoin="round"/>
<path d="M23.0477 11.6157L19.8253 14.5197L17.2366 12.2098L14.0142 15.1137" stroke="white" stroke-width="1.5" stroke-linecap="round" stroke-linejoin="round"/>
<path d="M11.2456 25.6773C11.2327 25.6612 11.2339 25.6087 11.2492 25.5198C11.2623 25.4247 11.2727 25.3133 11.2804 25.1855C11.292 25.0494 11.2959 24.9022 11.2923 24.7439C11.2924 24.5773 11.2731 24.4144 11.2343 24.2553C11.2016 24.0938 11.1445 23.9414 11.063 23.7981C10.9815 23.6547 10.8625 23.5321 10.7062 23.4302C10.6177 23.3796 10.5113 23.3739 10.3868 23.4129C10.2662 23.4436 10.1387 23.5115 10.0043 23.6167C9.87371 23.7136 9.74424 23.8412 9.61589 23.9997C9.49136 24.1498 9.38589 24.3137 9.2995 24.4914C9.21082 24.6629 9.14617 24.843 9.10555 25.0315C9.07104 25.2177 9.07737 25.3924 9.12454 25.5554C9.16029 25.6879 9.20788 25.8057 9.26731 25.9086C9.33285 26.0093 9.40107 26.0986 9.47198 26.1765C9.54288 26.2544 9.61455 26.3251 9.687 26.3886C9.75944 26.452 9.8254 26.5074 9.88489 26.5549C9.96572 26.6221 10.0775 26.6884 10.2201 26.7537C10.3628 26.819 10.5203 26.8961 10.6927 26.9851C10.8628 27.0679 11.0398 27.1691 11.2236 27.2886C11.4074 27.408 11.5839 27.5545 11.7532 27.7279C11.9224 27.9013 12.0734 28.1092 12.2059 28.3517C12.3385 28.5942 12.4417 28.8788 12.5154 29.2055C12.6172 29.6815 12.6508 30.0959 12.6162 30.4487C12.5838 30.8077 12.5133 31.1114 12.4047 31.3597C12.3022 31.6058 12.1773 31.8011 12.0298 31.9458C11.8847 32.0966 11.7587 32.2057 11.6518 32.2729C11.567 32.3251 11.4628 32.3809 11.3391 32.4405C11.2238 32.5039 11.0914 32.5494 10.9418 32.5769C10.8006 32.6083 10.6472 32.6164 10.4816 32.6013C10.3183 32.5922 10.1565 32.5409 9.99634 32.4474C9.81099 32.3424 9.64855 32.2151 9.50903 32.0654C9.38475 31.9378 9.26965 31.7791 9.16375 31.5892C9.05401 31.4076 8.99277 31.1978 8.98001 30.9596C9.00831 30.8867 9.04195 30.8187 9.08093 30.7557C9.11991 30.6928 9.16117 30.6359 9.20472 30.5851C9.25208 30.5259 9.30365 30.4687 9.35941 30.4134C9.42967 30.3597 9.50107 30.309 9.57361 30.2614C9.63622 30.2244 9.70417 30.1923 9.77746 30.1652C9.85457 30.1298 9.93129 30.1118 10.0076 30.1114C9.95482 30.2489 9.92724 30.3701 9.92485 30.4751C9.9187 30.5329 9.91636 30.5823 9.91785 30.6234C9.93682 30.7483 9.97905 30.8888 10.0445 31.0451C10.1184 31.2052 10.2103 31.3482 10.32 31.4742C10.4382 31.604 10.5717 31.7004 10.7204 31.7635C10.8715 31.8326 11.0397 31.8363 11.2252 31.7747C11.6756 31.6221 11.9241 31.1348 11.9706 30.3125C11.9922 30.0547 11.9608 29.813 11.8763 29.5874C11.7979 29.3596 11.6893 29.1534 11.5506 28.9687C11.418 28.7817 11.2697 28.6179 11.1057 28.4772C10.9456 28.3282 10.7927 28.2077 10.647 28.1158C10.5013 28.0239 10.3309 27.9308 10.1356 27.8364C9.94411 27.7336 9.74809 27.6187 9.54749 27.4915C9.34689 27.3644 9.1528 27.2175 8.96522 27.0509C8.78374 26.882 8.629 26.6824 8.50099 26.4521C8.32423 26.1287 8.23829 25.8065 8.24315 25.4855C8.25185 25.1561 8.31088 24.8497 8.42027 24.5664C8.53577 24.2808 8.68137 24.0292 8.8571 23.8116C9.03893 23.5918 9.21154 23.4308 9.37495 23.3288C10.2851 22.7704 10.9911 22.6969 11.4929 23.1083C11.6965 23.2621 11.8467 23.4495 11.9434 23.6705C12.0402 23.8915 12.1037 24.1075 12.134 24.3184C12.1682 24.5209 12.1798 24.7005 12.169 24.8572C12.162 25.0055 12.1516 25.0891 12.1379 25.1081C12.1149 25.1582 12.0718 25.2193 12.0084 25.2913C11.945 25.3633 11.8316 25.4503 11.6681 25.5524C11.6239 25.5826 11.5773 25.6068 11.5284 25.6248C11.4857 25.6406 11.4387 25.6545 11.3876 25.6664C11.3364 25.6784 11.2891 25.682 11.2456 25.6773ZM15.962 28.1609C15.9291 28.2772 15.89 28.3957 15.8449 28.5165C15.7998 28.6373 15.7451 28.7512 15.6809 28.8582C15.6167 28.9652 15.5407 29.0592 15.4528 29.1402C15.3673 29.2274 15.2665 29.2924 15.1505 29.3353C14.8634 29.4413 14.6188 29.4658 14.4166 29.4086C14.2144 29.3515 14.0439 29.2583 13.9052 29.1292C13.7725 28.9978 13.6692 28.852 13.5953 28.6919C13.5131 28.528 13.4525 28.3942 13.4137 28.2906C13.3086 28.0102 13.2574 27.7064 13.26 27.3793C13.2603 27.046 13.3075 26.7267 13.4016 26.4212C13.4958 26.1158 13.6315 25.847 13.8087 25.615C13.9898 25.3746 14.2025 25.2092 14.4468 25.1189C14.5995 25.0625 14.7403 25.0487 14.8693 25.0773C14.9959 25.0999 15.11 25.1445 15.2114 25.2112C15.3128 25.2778 15.3983 25.3573 15.4676 25.4496C15.5431 25.5397 15.6018 25.6221 15.6437 25.6968C15.6285 25.6192 15.6122 25.5385 15.5947 25.4547C15.5818 25.3831 15.5666 25.3055 15.5491 25.2217C15.5316 25.1379 15.5153 25.0572 15.5001 24.9796C15.5253 24.9355 15.5559 24.8965 15.5918 24.8624C15.6338 24.8261 15.6769 24.7928 15.7212 24.7625C15.7716 24.73 15.8232 24.7006 15.8758 24.6741C15.9308 24.6538 15.9839 24.6377 16.035 24.6257C16.1373 24.6018 16.217 24.6105 16.2742 24.6519C16.3134 25.2759 16.3488 25.7417 16.3806 26.0492C16.3972 26.2234 16.415 26.373 16.434 26.4979C16.4415 26.5922 16.454 26.7369 16.4714 26.9317C16.4948 27.1243 16.5194 27.3477 16.5452 27.6019C16.5709 27.8561 16.6004 28.1298 16.6337 28.4228C16.6647 28.7098 16.6977 28.9925 16.7325 29.2711C16.8167 29.0874 16.9065 28.8911 17.0021 28.6823C17.1038 28.4712 17.2032 28.254 17.3003 28.0307C17.3974 27.8075 17.4904 27.5823 17.5791 27.3552C17.6716 27.1197 17.7531 26.8918 17.8235 26.6715C17.8664 26.5446 17.9107 26.4588 17.9565 26.4141C18.0085 26.3672 18.0524 26.3544 18.0882 26.3759C18.1218 26.3912 18.145 26.4347 18.1579 26.5062C18.1747 26.5695 18.1693 26.6478 18.1417 26.7413C18.0942 26.9115 18.041 27.0942 17.9821 27.2895C17.9209 27.4787 17.8547 27.6732 17.7835 27.873C17.7162 28.0644 17.6458 28.257 17.5724 28.4507C17.4989 28.6444 17.427 28.8237 17.3567 28.9885C17.2802 29.1555 17.1938 29.3332 17.0975 29.5215C17.0034 29.7158 16.9204 29.9304 16.8485 30.1652C16.8675 30.2901 16.8849 30.4016 16.9009 30.4998C16.9229 30.5958 16.9415 30.6826 16.9567 30.7602C17.0061 30.9849 17.0521 31.1726 17.0947 31.3234C17.1457 31.4781 17.1918 31.6103 17.2329 31.72C17.2763 31.8358 17.3181 31.9383 17.3585 32.0275C17.4012 32.1228 17.4419 32.2223 17.4807 32.3259C17.5691 32.5431 17.617 32.6989 17.6245 32.7933C17.6382 32.8854 17.584 32.954 17.4618 32.9991C17.4007 33.0217 17.3111 33.0236 17.1928 33.0049C17.0745 32.9861 16.9513 32.9449 16.8232 32.8812C16.695 32.8175 16.5711 32.728 16.4514 32.6126C16.3378 32.495 16.2478 32.3477 16.1816 32.171C16.0948 31.9393 16.055 31.6938 16.0621 31.4344C16.0715 31.1811 16.1125 30.9195 16.1853 30.6497C16.1709 30.4815 16.1528 30.2939 16.1308 30.0869C16.115 29.8776 16.0969 29.6622 16.0765 29.4407C16.0583 29.2253 16.0391 29.0069 16.0187 28.7854C15.9983 28.5639 15.9794 28.3558 15.962 28.1609ZM14.294 28.2464C14.3603 28.4232 14.433 28.5524 14.5123 28.6342C14.5977 28.7136 14.6801 28.7665 14.7594 28.7927C14.8426 28.8105 14.9189 28.8101 14.9884 28.7914C15.0579 28.7726 15.114 28.7554 15.1567 28.7396C15.285 28.6922 15.3908 28.5941 15.4741 28.4453C15.5551 28.2905 15.6148 28.1157 15.6531 27.9211C15.6976 27.7243 15.7222 27.5208 15.7269 27.3109C15.7355 27.0926 15.7285 26.8974 15.7057 26.7253C15.6898 26.6271 15.6742 26.5392 15.659 26.4615C15.6499 26.3816 15.6424 26.315 15.6363 26.2617C15.5248 26.3168 15.4363 26.3217 15.3707 26.2766C15.3051 26.2314 15.2407 26.1338 15.1775 25.9836C15.1547 25.9227 15.1246 25.8609 15.0872 25.7984C15.0476 25.7297 15.0023 25.6736 14.9512 25.63C14.8978 25.5804 14.8398 25.5463 14.7773 25.5277C14.7147 25.5092 14.6468 25.5135 14.5735 25.5406C14.4147 25.5993 14.2925 25.7277 14.2068 25.9259C14.1273 26.1219 14.0779 26.3518 14.0585 26.6157C14.0392 26.8796 14.0493 27.157 14.0887 27.4478C14.1342 27.7363 14.2027 28.0025 14.294 28.2464ZM19.4414 27.5935C19.2093 27.6793 19.0062 27.7126 18.8323 27.6937C18.6583 27.6747 18.5091 27.6292 18.3848 27.5571C18.2643 27.4767 18.1629 27.3823 18.0805 27.274C18.002 27.1572 17.9434 27.047 17.9046 26.9434C17.836 26.7605 17.7794 26.5629 17.7345 26.3504C17.6874 26.1319 17.6532 25.9293 17.632 25.7428C17.6086 25.5503 17.5892 25.3874 17.5741 25.2542C17.5651 25.1187 17.5609 25.0335 17.5617 24.9985C17.5505 24.8014 17.5636 24.623 17.6011 24.4634C17.6425 24.2954 17.7334 24.1577 17.874 24.0503C17.9305 24.0155 17.99 23.9796 18.0526 23.9426C18.1053 23.9162 18.1591 23.8929 18.2141 23.8725C18.2752 23.85 18.3336 23.8388 18.3893 23.839C18.382 24.3206 18.382 24.7197 18.3894 25.0362C18.4028 25.3505 18.4182 25.605 18.4356 25.7999C18.456 26.0213 18.4829 26.1953 18.5164 26.3217C18.5886 26.6073 18.6907 26.8056 18.8227 26.9164C18.9546 27.0273 19.1427 27.0376 19.387 26.9473C19.5458 26.8887 19.6768 26.7743 19.7799 26.6043C19.8808 26.4283 19.957 26.2232 20.0083 25.989C19.9534 25.8983 19.9066 25.8011 19.8678 25.6974C19.7947 25.5024 19.7391 25.3078 19.7012 25.1136C19.667 24.9111 19.6416 24.7227 19.625 24.5484C19.6122 24.3657 19.6062 24.2014 19.6071 24.0553C19.6141 23.907 19.6222 23.7894 19.6315 23.7027C19.6438 23.5316 19.6718 23.4207 19.7153 23.3699C19.7566 23.313 19.8371 23.2589 19.957 23.2077C20.0036 23.1835 20.0433 23.1689 20.0761 23.1637C20.1127 23.1501 20.1444 23.1419 20.1711 23.139C20.2513 23.1302 20.3016 23.1532 20.3222 23.2081C20.3587 23.3056 20.4074 23.4542 20.4683 23.6538C20.5292 23.8533 20.5679 24.0681 20.5845 24.2979C20.6057 24.4844 20.6177 24.6465 20.6207 24.7842C20.6274 24.9136 20.6285 25.0277 20.6238 25.1266C20.6168 25.2194 20.6053 25.3 20.5892 25.3684C20.5709 25.4307 20.5544 25.4888 20.5399 25.5428C20.6206 25.7211 20.6907 25.8618 20.7501 25.9648C20.8095 26.0677 20.8629 26.1452 20.9102 26.1971C20.9613 26.2407 21.0097 26.2679 21.0555 26.2787C21.1051 26.2812 21.1543 26.2735 21.2032 26.2554C21.2887 26.2238 21.3746 26.1469 21.4609 26.0248C21.545 25.8966 21.6253 25.7489 21.7017 25.5819C21.782 25.4065 21.8558 25.223 21.9232 25.0316C21.9943 24.8318 22.0567 24.6457 22.1103 24.4732C22.1638 24.3007 22.209 24.1522 22.2457 24.0275C22.2802 23.8968 22.302 23.8159 22.3112 23.7847C22.3334 23.7141 22.3605 23.6659 22.3926 23.6401C22.4308 23.6122 22.4667 23.6058 22.5002 23.6212C22.5315 23.6305 22.5563 23.6595 22.5746 23.7082C22.5967 23.7487 22.6027 23.8019 22.5927 23.8681C22.5574 24.1449 22.4972 24.4482 22.4122 24.778C22.331 25.0995 22.2277 25.4083 22.1023 25.7045C21.983 25.9985 21.8469 26.257 21.6941 26.48C21.5412 26.703 21.3732 26.8484 21.19 26.9161C21.0251 26.977 20.8732 26.9707 20.7344 26.8971C20.5994 26.8151 20.4583 26.6798 20.3112 26.4913C20.253 26.7627 20.152 26.9943 20.0084 27.1862C19.8624 27.372 19.6734 27.5077 19.4414 27.5935ZM26.6656 22.6858C26.6258 22.8393 26.573 23.0323 26.5071 23.2648C26.439 23.4913 26.3659 23.723 26.2879 23.96C26.2136 24.1887 26.1348 24.4052 26.0515 24.6096C25.9719 24.8055 25.8978 24.9509 25.829 25.0457C25.7816 25.1048 25.7228 25.1613 25.6525 25.215C25.5823 25.2687 25.5055 25.3144 25.4223 25.3521C25.3452 25.3876 25.2666 25.4097 25.1865 25.4185C25.1086 25.4334 25.0353 25.4327 24.9667 25.4164C24.8957 25.394 24.8271 25.35 24.7607 25.2843C24.7051 25.2285 24.6414 25.1514 24.5698 25.053C24.5042 24.9523 24.4437 24.8185 24.3881 24.6516C24.3329 24.9497 24.2419 25.1984 24.115 25.398C23.9859 25.5915 23.8533 25.748 23.7174 25.8677C23.5593 26.0024 23.3909 26.1097 23.2122 26.1896C23.1267 26.2212 23.0237 26.2246 22.9031 26.1998C22.7849 26.181 22.6693 26.1231 22.5564 26.026C22.4413 25.9228 22.338 25.777 22.2466 25.5887C22.1529 25.3943 22.0883 25.1476 22.0527 24.8484C21.9989 24.445 22.0065 24.057 22.0755 23.6845C22.1506 23.3097 22.2581 22.975 22.3981 22.6804C22.5357 22.3797 22.6908 22.135 22.8635 21.9463C23.0361 21.7576 23.195 21.6433 23.34 21.6036C23.5163 21.5732 23.6689 21.5723 23.7979 21.601C23.9062 21.6303 23.9955 21.7015 24.0656 21.8144C24.1395 21.9189 24.1489 22.0924 24.0937 22.3349C24.1724 22.285 24.238 22.2469 24.2907 22.2204C24.3495 22.1918 24.3942 22.1718 24.4247 22.1605C24.4613 22.147 24.4869 22.141 24.5014 22.1426C24.5121 22.1525 24.5254 22.1788 24.5414 22.2215C24.5551 22.2581 24.5722 22.3316 24.5927 22.442C24.6132 22.5524 24.6383 22.7027 24.6679 22.8931C24.6975 23.0834 24.7343 23.33 24.7782 23.633C24.7866 23.6924 24.7938 23.7487 24.7998 23.802C24.8097 23.847 24.8177 23.8961 24.8238 23.9493C24.8336 23.9943 24.8439 24.0495 24.8545 24.1149C24.8651 24.1804 24.8784 24.2623 24.8944 24.3605C24.9088 24.4176 24.9286 24.4797 24.9537 24.5467C24.9827 24.6054 25.0166 24.6588 25.0554 24.7069C25.0943 24.755 25.1389 24.7906 25.1893 24.8136C25.2435 24.8283 25.3072 24.8221 25.3805 24.795C25.4415 24.7725 25.5072 24.7066 25.5775 24.5973C25.6456 24.4819 25.7129 24.346 25.7794 24.1896C25.8436 24.027 25.9075 23.8542 25.971 23.6711C26.0384 23.4797 26.0988 23.2977 26.1524 23.1252C26.206 22.9528 26.253 22.8 26.2936 22.6671C26.3403 22.5318 26.3728 22.4331 26.3912 22.3708C26.4195 22.2978 26.4569 22.2493 26.5035 22.2252C26.5478 22.1949 26.589 22.1936 26.6271 22.2211C26.6653 22.2487 26.6889 22.3024 26.698 22.3823C26.7131 22.46 26.7024 22.5611 26.6656 22.6858ZM24.1322 24.08C24.1171 23.9468 24.1 23.79 24.0811 23.6096C24.0622 23.4292 24.0395 23.2571 24.0129 23.0935C23.9863 22.9298 23.9609 22.7969 23.9366 22.6948C23.9161 22.5844 23.8947 22.5368 23.8726 22.5519C23.8443 22.5693 23.8142 22.5909 23.7821 22.6166C23.7561 22.6401 23.7199 22.6639 23.6733 22.688C23.6267 22.7122 23.5813 22.7394 23.537 22.7696C23.5493 22.654 23.5471 22.5646 23.5304 22.5014C23.5175 22.4298 23.5011 22.3769 23.4813 22.3426C23.4592 22.3022 23.4344 22.2732 23.4069 22.2555C23.3192 22.2255 23.2173 22.3152 23.1011 22.5247C22.9887 22.7259 22.8945 23.0591 22.8186 23.5244C22.7863 23.7167 22.777 23.9145 22.7905 24.1177C22.8018 24.3148 22.8249 24.4971 22.8599 24.6646C22.9009 24.8299 22.9504 24.9712 23.0083 25.0887C23.0639 25.2 23.1169 25.2671 23.1673 25.2902C23.2596 25.3324 23.3485 25.3377 23.434 25.3061C23.5172 25.2684 23.5935 25.2125 23.6631 25.1382C23.7364 25.0556 23.8021 24.9619 23.8602 24.8571C23.9244 24.7501 23.9753 24.6446 24.0127 24.5405C24.0563 24.4342 24.087 24.3396 24.1046 24.2567C24.1283 24.1716 24.1375 24.1127 24.1322 24.08ZM28.9924 21.9092C29.0327 22.1095 29.0695 22.3006 29.103 22.4826C29.1425 22.6623 29.1786 22.8051 29.2113 22.911C29.2623 23.0656 29.3309 23.1652 29.4171 23.2097C29.5033 23.2542 29.583 23.2629 29.6563 23.2358C29.7418 23.2042 29.8297 23.1232 29.9198 22.9927C30.0161 22.86 30.1105 22.7036 30.203 22.5237C30.2955 22.3438 30.3834 22.1517 30.4668 21.9473C30.5502 21.743 30.6248 21.5524 30.6906 21.3754C30.7602 21.19 30.8153 21.0309 30.8558 20.8979C30.9025 20.7627 30.9354 20.6742 30.9545 20.6324C30.9775 20.5823 31.0061 20.5474 31.0405 20.5278C31.0809 20.5059 31.1168 20.4996 31.1481 20.5088C31.1794 20.5181 31.2041 20.5471 31.2224 20.5959C31.2407 20.6447 31.2391 20.7146 31.2176 20.8059C31.1878 20.9488 31.1445 21.1209 31.0878 21.3223C31.0289 21.5176 30.96 21.7235 30.8812 21.94C30.8024 22.1565 30.7133 22.3733 30.6139 22.5905C30.5206 22.8054 30.4174 23.0031 30.3043 23.1837C30.1973 23.3621 30.0842 23.5149 29.965 23.6422C29.8543 23.7734 29.7409 23.8604 29.6248 23.9033C29.5393 23.9349 29.4477 23.941 29.3501 23.9215C29.2585 23.8998 29.1673 23.8607 29.0766 23.804C28.9858 23.7473 28.9038 23.677 28.8306 23.593C28.7636 23.5067 28.7148 23.4137 28.6844 23.3139C28.6745 23.269 28.6562 23.1924 28.6296 23.0843C28.4805 23.4656 28.3066 23.7901 28.1079 24.0578C27.9131 24.3172 27.6966 24.4909 27.4584 24.5789C27.3729 24.6105 27.2733 24.623 27.1596 24.6165C27.0459 24.6099 26.931 24.5725 26.8151 24.5043C26.7053 24.4339 26.5962 24.3284 26.488 24.188C26.3797 24.0475 26.2895 23.8623 26.2172 23.6322C26.103 23.2719 26.0476 22.9106 26.051 22.5485C26.0544 22.1864 26.1043 21.8556 26.2007 21.5563C26.301 21.2486 26.442 20.9848 26.6239 20.7649C26.8095 20.5367 27.0214 20.3786 27.2596 20.2905C27.3634 20.2522 27.4684 20.2446 27.5744 20.2679C27.6782 20.2851 27.7766 20.325 27.8697 20.3878C27.9604 20.4445 28.0424 20.5148 28.1156 20.5988C28.1949 20.6806 28.2597 20.7607 28.31 20.8393C28.2865 20.6467 28.2611 20.4583 28.2338 20.2741C28.2065 20.0899 28.1826 19.9148 28.1622 19.7488C28.1387 19.5007 28.1115 19.2332 28.0805 18.9462C28.057 18.6981 28.0302 18.413 27.9999 18.0911C27.9697 17.7691 27.9429 17.4286 27.9196 17.0694C27.9624 16.998 28.0067 16.94 28.0525 16.8953C28.0984 16.8506 28.1434 16.8132 28.1877 16.7829C28.2358 16.7443 28.2843 16.716 28.3332 16.6979C28.3943 16.6754 28.4526 16.6642 28.5084 16.6644C28.5618 16.6586 28.6163 16.6835 28.672 16.7393C28.7315 16.7867 28.7913 16.8722 28.8515 16.9957C28.9117 17.1192 28.9767 17.2929 29.0468 17.5169C29.135 17.7896 29.1958 18.1003 29.2291 18.4489C29.2684 18.7952 29.2849 19.1639 29.2784 19.5549C29.2697 19.9399 29.2407 20.3358 29.1915 20.7426C29.1461 21.1411 29.0798 21.5299 28.9924 21.9092ZM28.4965 22.2278C28.4775 22.103 28.4555 21.9792 28.4304 21.8566C28.4114 21.7318 28.3944 21.6028 28.3792 21.4696C28.3693 21.4802 28.3594 21.4908 28.3495 21.5014C28.3456 21.5097 28.3388 21.5192 28.3288 21.5298C28.2731 21.5851 28.2273 21.6021 28.1914 21.5806C28.1533 21.5531 28.1205 21.5027 28.0931 21.4295C28.0794 21.393 28.0524 21.3301 28.012 21.2409C27.9693 21.1456 27.9145 21.0549 27.8474 20.9686C27.7841 20.874 27.7113 20.8003 27.629 20.7474C27.5443 20.6885 27.4531 20.6771 27.3554 20.7132C27.2149 20.7651 27.0988 20.8913 27.007 21.0918C26.913 21.2861 26.8407 21.5106 26.7901 21.7653C26.7372 22.0139 26.7114 22.2698 26.7127 22.533C26.714 22.7963 26.7428 23.0216 26.7991 23.209C26.8965 23.5061 27.0119 23.7029 27.1454 23.7993C27.2789 23.8957 27.4189 23.9169 27.5655 23.8627C27.6754 23.8221 27.7785 23.7354 27.8748 23.6027C27.9772 23.4677 28.0666 23.3166 28.1431 23.1496C28.2256 22.9803 28.2949 22.8124 28.3507 22.646C28.4127 22.4774 28.4613 22.338 28.4965 22.2278Z" fill="white"/>
</svg>
